<svg preserveAspectRatio="none" width="100%" height="100%" overflow="visible" style="display: block;" viewBox="0 0 16.5625 16.5626" fill="none" xmlns="http://www.w3.org/2000/svg">
<path id="Vector" d="M0.781254 8.98179C2.42124 7.33338 5.67495 7.30709 7.3666 8.90262M5.44174 10.301C6.03819 9.54567 6.70356 9.11544 7.3666 8.90262M0.781254 14.5166C2.31479 16.1813 5.36218 16.2025 6.93461 14.5808C6.9754 14.5387 7.0103 14.4912 7.04019 14.4407C7.05503 14.4156 7.08614 14.4051 7.11334 14.4156C8.98961 15.1376 10.5968 15.0703 12.4335 14.4656C14.2684 13.8614 15.1859 13.5593 15.6149 12.4842C16.0439 11.4091 15.6059 10.4467 14.7298 8.52201C13.6467 6.14226 12.3727 4.27026 10.4163 1.85686C10.1087 1.47735 10.1004 1.47132 9.64371 1.34391L7.85367 0.844574C6.84449 0.563063 6.37959 1.27336 5.76348 1.94212C5.19468 2.55953 4.91027 2.86823 4.98663 3.30609C5.14882 4.2362 6.70897 4.45608 7.44183 4.33509C8.10481 4.22563 8.43634 4.1709 8.62701 4.24941C9.03776 4.41853 9.31613 4.97716 9.58239 5.32397C9.87221 5.70148 10.0171 5.89025 10.0617 6.00233C10.1062 6.11442 10.1761 6.74521 10.3157 8.00671C10.3397 8.22272 9.6432 8.8905 9.43148 8.84147C8.80716 8.69689 8.08826 8.67099 7.3666 8.90262" stroke="var(--stroke-0, #3D4149)" stroke-width="1.5625" stroke-linecap="round" stroke-linejoin="round"/>
</svg>
